<svg xmlns="http://www.w3.org/2000/svg" width="53" height="69" viewBox="0 0 53 69"><g><g opacity=".3"><path fill="#fff" d="M43.079 2.005c-.5-.834.473-2.13 1.131-1.028 8.545 14.284 12.226 33.6 1.695 47.802-9.839 13.27-25.8 16.721-41.383 13.589 1.589 1.367 3.054 2.851 4.21 4.665.464.727-.256 2.423-.9 1.416C5.93 65.465 3.158 63.42.41 61.27c-.328-.256-.397-.827-.283-1.268.039-.312.179-.59.442-.7 3.38-1.403 7.1-1.775 9.968-4.223.828-.708 1.416 1.109.768 1.663-2.245 1.916-4.944 2.63-7.641 3.49 14.893 3.274 32.156.638 41.21-12.798 9.564-14.191 6.674-31.27-1.795-45.428z"/></g></g></svg>